<svg width="28" height="28" viewBox="0 0 28 28" fill="none" xmlns="http://www.w3.org/2000/svg">
  <path d="M14 14V14.0117" stroke="#4B465C" stroke-width="1.75" stroke-linecap="round" stroke-linejoin="round"/>
  <path d="M14 14V14.0117" stroke="white" stroke-opacity="0.2" stroke-width="1.75" stroke-linecap="round" stroke-linejoin="round"/>
  <path d="M17.2993 10.7007C19.1211 12.523 19.1211 15.477 17.2993 17.2993" stroke="#4B465C" stroke-width="1.75" stroke-linecap="round" stroke-linejoin="round"/>
  <path d="M17.2993 10.7007C19.1211 12.523 19.1211 15.477 17.2993 17.2993" stroke="white" stroke-opacity="0.2" stroke-width="1.75" stroke-linecap="round" stroke-linejoin="round"/>
  <path d="M20.5999 7.40015C22.3503 9.1505 23.3337 11.5245 23.3337 14C23.3337 16.4754 22.3503 18.8495 20.5999 20.5998" stroke="#4B465C" stroke-width="1.75" stroke-linecap="round" stroke-linejoin="round"/>
  <path d="M20.5999 7.40015C22.3503 9.1505 23.3337 11.5245 23.3337 14C23.3337 16.4754 22.3503 18.8495 20.5999 20.5998" stroke="white" stroke-opacity="0.2" stroke-width="1.75" stroke-linecap="round" stroke-linejoin="round"/>
  <path d="M10.6959 17.2993C8.87414 15.477 8.87414 12.523 10.6959 10.7007" stroke="#4B465C" stroke-width="1.75" stroke-linecap="round" stroke-linejoin="round"/>
  <path d="M10.6959 17.2993C8.87414 15.477 8.87414 12.523 10.6959 10.7007" stroke="white" stroke-opacity="0.2" stroke-width="1.75" stroke-linecap="round" stroke-linejoin="round"/>
  <path d="M7.39314 20.5998C5.6427 18.8495 4.6593 16.4754 4.6593 14C4.6593 11.5245 5.6427 9.1505 7.39314 7.40015" stroke="#4B465C" stroke-width="1.75" stroke-linecap="round" stroke-linejoin="round"/>
  <path d="M7.39314 20.5998C5.6427 18.8495 4.6593 16.4754 4.6593 14C4.6593 11.5245 5.6427 9.1505 7.39314 7.40015" stroke="white" stroke-opacity="0.2" stroke-width="1.75" stroke-linecap="round" stroke-linejoin="round"/>
</svg>
