<svg width="25" height="24" viewBox="0 0 25 24" fill="none" xmlns="http://www.w3.org/2000/svg">
  <circle cx="12.5" cy="12" r="9" stroke="#4B465C" stroke-width="1.75" stroke-linecap="round" stroke-linejoin="round"/>
  <circle cx="12.5" cy="12" r="9" stroke="white" stroke-opacity="0.2" stroke-width="1.75" stroke-linecap="round" stroke-linejoin="round"/>
  <path d="M15.3 8.99998C14.9309 8.35965 14.2387 7.97511 13.5 7.99998H11.5C10.3954 7.99998 9.5 8.89541 9.5 9.99998C9.5 11.1045 10.3954 12 11.5 12H13.5C14.6046 12 15.5 12.8954 15.5 14C15.5 15.1045 14.6046 16 13.5 16H11.5C10.7613 16.0248 10.0691 15.6403 9.7 15" stroke="#4B465C" stroke-width="1.75" stroke-linecap="round" stroke-linejoin="round"/>
  <path d="M15.3 8.99998C14.9309 8.35965 14.2387 7.97511 13.5 7.99998H11.5C10.3954 7.99998 9.5 8.89541 9.5 9.99998C9.5 11.1045 10.3954 12 11.5 12H13.5C14.6046 12 15.5 12.8954 15.5 14C15.5 15.1045 14.6046 16 13.5 16H11.5C10.7613 16.0248 10.0691 15.6403 9.7 15" stroke="white" stroke-opacity="0.2" stroke-width="1.75" stroke-linecap="round" stroke-linejoin="round"/>
  <path d="M13.375 6C13.375 5.51675 12.9832 5.125 12.5 5.125C12.0168 5.125 11.625 5.51675 11.625 6H13.375ZM11.625 8C11.625 8.48325 12.0168 8.875 12.5 8.875C12.9832 8.875 13.375 8.48325 13.375 8H11.625ZM13.375 16C13.375 15.5168 12.9832 15.125 12.5 15.125C12.0168 15.125 11.625 15.5168 11.625 16H13.375ZM11.625 18C11.625 18.4832 12.0168 18.875 12.5 18.875C12.9832 18.875 13.375 18.4832 13.375 18H11.625ZM11.625 6V8H13.375V6H11.625ZM11.625 16V18H13.375V16H11.625Z" fill="#4B465C"/>
  <path d="M13.375 6C13.375 5.51675 12.9832 5.125 12.5 5.125C12.0168 5.125 11.625 5.51675 11.625 6H13.375ZM11.625 8C11.625 8.48325 12.0168 8.875 12.5 8.875C12.9832 8.875 13.375 8.48325 13.375 8H11.625ZM13.375 16C13.375 15.5168 12.9832 15.125 12.5 15.125C12.0168 15.125 11.625 15.5168 11.625 16H13.375ZM11.625 18C11.625 18.4832 12.0168 18.875 12.5 18.875C12.9832 18.875 13.375 18.4832 13.375 18H11.625ZM11.625 6V8H13.375V6H11.625ZM11.625 16V18H13.375V16H11.625Z" fill="white" fill-opacity="0.2"/>
</svg>
