<svg width="24" height="24" viewBox="0 0 24 24" fill="none" xmlns="http://www.w3.org/2000/svg">
  <path d="M11.125 19C11.125 19.4832 11.5168 19.875 12 19.875C12.4832 19.875 12.875 19.4832 12.875 19H11.125ZM12 12H12.875C12.875 11.8176 12.818 11.6398 12.712 11.4914L12 12ZM7.71202 4.49142C7.43113 4.09818 6.88465 4.0071 6.49142 4.28798C6.09818 4.56887 6.0071 5.11535 6.28798 5.50858L7.71202 4.49142ZM17.712 5.50858C17.9929 5.11535 17.9018 4.56887 17.5086 4.28798C17.1153 4.0071 16.5689 4.09818 16.288 4.49142L17.712 5.50858ZM11.288 11.4914C11.0071 11.8847 11.0982 12.4311 11.4914 12.712C11.8847 12.9929 12.4311 12.9018 12.712 12.5086L11.288 11.4914ZM12.875 19V12H11.125V19H12.875ZM12.712 11.4914L7.71202 4.49142L6.28798 5.50858L11.288 12.5086L12.712 11.4914ZM16.288 4.49142L11.288 11.4914L12.712 12.5086L17.712 5.50858L16.288 4.49142Z" fill="#EA5455"/>
  <path d="M11.125 19C11.125 19.4832 11.5168 19.875 12 19.875C12.4832 19.875 12.875 19.4832 12.875 19H11.125ZM12 12H12.875C12.875 11.8176 12.818 11.6398 12.712 11.4914L12 12ZM7.71202 4.49142C7.43113 4.09818 6.88465 4.0071 6.49142 4.28798C6.09818 4.56887 6.0071 5.11535 6.28798 5.50858L7.71202 4.49142ZM17.712 5.50858C17.9929 5.11535 17.9018 4.56887 17.5086 4.28798C17.1153 4.0071 16.5689 4.09818 16.288 4.49142L17.712 5.50858ZM11.288 11.4914C11.0071 11.8847 11.0982 12.4311 11.4914 12.712C11.8847 12.9929 12.4311 12.9018 12.712 12.5086L11.288 11.4914ZM12.875 19V12H11.125V19H12.875ZM12.712 11.4914L7.71202 4.49142L6.28798 5.50858L11.288 12.5086L12.712 11.4914ZM16.288 4.49142L11.288 11.4914L12.712 12.5086L17.712 5.50858L16.288 4.49142Z" fill="white" fill-opacity="0.2"/>
  <path d="M8 14H16" stroke="#EA5455" stroke-width="1.75" stroke-linecap="round" stroke-linejoin="round"/>
  <path d="M8 14H16" stroke="white" stroke-opacity="0.2" stroke-width="1.75" stroke-linecap="round" stroke-linejoin="round"/>
</svg>
