<svg width="24" height="24" viewBox="0 0 24 24" fill="none" xmlns="http://www.w3.org/2000/svg">
  <path d="M17.2001 7C14.8445 4.30738 11.0679 4.33735 8.74393 7.06712C6.41999 9.79689 6.41999 14.2031 8.74393 16.9329C11.0679 19.6627 14.8445 19.6926 17.2001 17" stroke="#EA5455" stroke-width="1.75" stroke-linecap="round" stroke-linejoin="round"/>
  <path d="M17.2001 7C14.8445 4.30738 11.0679 4.33735 8.74393 7.06712C6.41999 9.79689 6.41999 14.2031 8.74393 16.9329C11.0679 19.6627 14.8445 19.6926 17.2001 17" stroke="white" stroke-opacity="0.2" stroke-width="1.75" stroke-linecap="round" stroke-linejoin="round"/>
  <path d="M13 10.875C13.4832 10.875 13.875 10.4832 13.875 10C13.875 9.51675 13.4832 9.125 13 9.125V10.875ZM5 9.125C4.51675 9.125 4.125 9.51675 4.125 10C4.125 10.4832 4.51675 10.875 5 10.875V9.125ZM5 13.125C4.51675 13.125 4.125 13.5168 4.125 14C4.125 14.4832 4.51675 14.875 5 14.875V13.125ZM13 14.875C13.4832 14.875 13.875 14.4832 13.875 14C13.875 13.5168 13.4832 13.125 13 13.125V14.875ZM13 9.125H5V10.875H13V9.125ZM5 14.875H13V13.125H5V14.875Z" fill="#EA5455"/>
  <path d="M13 10.875C13.4832 10.875 13.875 10.4832 13.875 10C13.875 9.51675 13.4832 9.125 13 9.125V10.875ZM5 9.125C4.51675 9.125 4.125 9.51675 4.125 10C4.125 10.4832 4.51675 10.875 5 10.875V9.125ZM5 13.125C4.51675 13.125 4.125 13.5168 4.125 14C4.125 14.4832 4.51675 14.875 5 14.875V13.125ZM13 14.875C13.4832 14.875 13.875 14.4832 13.875 14C13.875 13.5168 13.4832 13.125 13 13.125V14.875ZM13 9.125H5V10.875H13V9.125ZM5 14.875H13V13.125H5V14.875Z" fill="white" fill-opacity="0.2"/>
</svg>
