<svg width="22" height="22" viewBox="0 0 22 22" fill="none" xmlns="http://www.w3.org/2000/svg">
  <path d="M4.58333 11H2.75L11 2.75L19.25 11H17.4167" stroke="#4B465C" stroke-width="1.75" stroke-linecap="round" stroke-linejoin="round"/>
  <path d="M4.58333 11H2.75L11 2.75L19.25 11H17.4167" stroke="white" stroke-opacity="0.2" stroke-width="1.75" stroke-linecap="round" stroke-linejoin="round"/>
  <path d="M4.58325 11V17.4167C4.58325 18.4292 5.40406 19.25 6.41659 19.25H15.5833C16.5958 19.25 17.4166 18.4292 17.4166 17.4167V11" stroke="#4B465C" stroke-width="1.75" stroke-linecap="round" stroke-linejoin="round"/>
  <path d="M4.58325 11V17.4167C4.58325 18.4292 5.40406 19.25 6.41659 19.25H15.5833C16.5958 19.25 17.4166 18.4292 17.4166 17.4167V11" stroke="white" stroke-opacity="0.2" stroke-width="1.75" stroke-linecap="round" stroke-linejoin="round"/>
  <rect x="9.16675" y="11" width="3.66667" height="3.66667" stroke="#4B465C" stroke-width="1.75" stroke-linecap="round" stroke-linejoin="round"/>
  <rect x="9.16675" y="11" width="3.66667" height="3.66667" stroke="white" stroke-opacity="0.2" stroke-width="1.75" stroke-linecap="round" stroke-linejoin="round"/>
</svg>
