<svg width="24" height="24" viewBox="0 0 24 24" fill="none" xmlns="http://www.w3.org/2000/svg">
  <path d="M3.125 12C3.125 12.4832 3.51675 12.875 4 12.875C4.48325 12.875 4.875 12.4832 4.875 12H3.125ZM20 6.875C20.4832 6.875 20.875 6.48325 20.875 6C20.875 5.51675 20.4832 5.125 20 5.125V6.875ZM17.6187 2.38128C17.277 2.03957 16.723 2.03957 16.3813 2.38128C16.0396 2.72299 16.0396 3.27701 16.3813 3.61872L17.6187 2.38128ZM20 6L20.6187 6.61872C20.9604 6.27701 20.9604 5.72299 20.6187 5.38128L20 6ZM16.3813 8.38128C16.0396 8.72299 16.0396 9.27701 16.3813 9.61872C16.723 9.96043 17.277 9.96043 17.6187 9.61872L16.3813 8.38128ZM4.875 12V9H3.125V12H4.875ZM4.875 9C4.875 7.82639 5.82639 6.875 7 6.875V5.125C4.8599 5.125 3.125 6.8599 3.125 9H4.875ZM7 6.875H20V5.125H7V6.875ZM16.3813 3.61872L19.3813 6.61872L20.6187 5.38128L17.6187 2.38128L16.3813 3.61872ZM19.3813 5.38128L16.3813 8.38128L17.6187 9.61872L20.6187 6.61872L19.3813 5.38128Z" fill="white"/>
  <path d="M3.125 12C3.125 12.4832 3.51675 12.875 4 12.875C4.48325 12.875 4.875 12.4832 4.875 12H3.125ZM20 6.875C20.4832 6.875 20.875 6.48325 20.875 6C20.875 5.51675 20.4832 5.125 20 5.125V6.875ZM17.6187 2.38128C17.277 2.03957 16.723 2.03957 16.3813 2.38128C16.0396 2.72299 16.0396 3.27701 16.3813 3.61872L17.6187 2.38128ZM20 6L20.6187 6.61872C20.9604 6.27701 20.9604 5.72299 20.6187 5.38128L20 6ZM16.3813 8.38128C16.0396 8.72299 16.0396 9.27701 16.3813 9.61872C16.723 9.96043 17.277 9.96043 17.6187 9.61872L16.3813 8.38128ZM4.875 12V9H3.125V12H4.875ZM4.875 9C4.875 7.82639 5.82639 6.875 7 6.875V5.125C4.8599 5.125 3.125 6.8599 3.125 9H4.875ZM7 6.875H20V5.125H7V6.875ZM16.3813 3.61872L19.3813 6.61872L20.6187 5.38128L17.6187 2.38128L16.3813 3.61872ZM19.3813 5.38128L16.3813 8.38128L17.6187 9.61872L20.6187 6.61872L19.3813 5.38128Z" fill="white" fill-opacity="0.2"/>
  <path d="M20.875 12C20.875 11.5168 20.4832 11.125 20 11.125C19.5167 11.125 19.125 11.5168 19.125 12H20.875ZM4 17.125C3.51675 17.125 3.125 17.5168 3.125 18C3.125 18.4832 3.51675 18.875 4 18.875V17.125ZM6.38128 21.6187C6.72299 21.9604 7.27701 21.9604 7.61872 21.6187C7.96043 21.277 7.96043 20.723 7.61872 20.3813L6.38128 21.6187ZM4 18L3.38128 17.3813C3.03957 17.723 3.03957 18.277 3.38128 18.6187L4 18ZM7.61872 15.6187C7.96043 15.277 7.96043 14.723 7.61872 14.3813C7.27701 14.0396 6.72299 14.0396 6.38128 14.3813L7.61872 15.6187ZM19.125 12V15H20.875V12H19.125ZM19.125 15C19.125 16.1736 18.1736 17.125 17 17.125V18.875C19.1401 18.875 20.875 17.1401 20.875 15H19.125ZM17 17.125H4V18.875H17V17.125ZM7.61872 20.3813L4.61872 17.3813L3.38128 18.6187L6.38128 21.6187L7.61872 20.3813ZM4.61872 18.6187L7.61872 15.6187L6.38128 14.3813L3.38128 17.3813L4.61872 18.6187Z" fill="white"/>
  <path d="M20.875 12C20.875 11.5168 20.4832 11.125 20 11.125C19.5167 11.125 19.125 11.5168 19.125 12H20.875ZM4 17.125C3.51675 17.125 3.125 17.5168 3.125 18C3.125 18.4832 3.51675 18.875 4 18.875V17.125ZM6.38128 21.6187C6.72299 21.9604 7.27701 21.9604 7.61872 21.6187C7.96043 21.277 7.96043 20.723 7.61872 20.3813L6.38128 21.6187ZM4 18L3.38128 17.3813C3.03957 17.723 3.03957 18.277 3.38128 18.6187L4 18ZM7.61872 15.6187C7.96043 15.277 7.96043 14.723 7.61872 14.3813C7.27701 14.0396 6.72299 14.0396 6.38128 14.3813L7.61872 15.6187ZM19.125 12V15H20.875V12H19.125ZM19.125 15C19.125 16.1736 18.1736 17.125 17 17.125V18.875C19.1401 18.875 20.875 17.1401 20.875 15H19.125ZM17 17.125H4V18.875H17V17.125ZM7.61872 20.3813L4.61872 17.3813L3.38128 18.6187L6.38128 21.6187L7.61872 20.3813ZM4.61872 18.6187L7.61872 15.6187L6.38128 14.3813L3.38128 17.3813L4.61872 18.6187Z" fill="white" fill-opacity="0.2"/>
</svg>
