<svg width="22" height="22" viewBox="0 0 22 22" fill="none" xmlns="http://www.w3.org/2000/svg">
  <path d="M6.4166 9.16666H9.1666V6.41666L5.95827 3.20833C8.06152 2.20384 10.5695 2.63414 12.2177 4.28227C13.8658 5.9304 14.2961 8.43842 13.2916 10.5417L18.7916 16.0417C19.551 16.8011 19.551 18.0323 18.7916 18.7917C18.0322 19.5511 16.801 19.5511 16.0416 18.7917L10.5416 13.2917C8.43836 14.2962 5.93034 13.8659 4.28221 12.2177C2.63408 10.5696 2.20377 8.06158 3.20827 5.95833L6.4166 9.16666" stroke="#4B465C" stroke-width="1.75" stroke-linecap="round" stroke-linejoin="round"/>
  <path d="M6.4166 9.16666H9.1666V6.41666L5.95827 3.20833C8.06152 2.20384 10.5695 2.63414 12.2177 4.28227C13.8658 5.9304 14.2961 8.43842 13.2916 10.5417L18.7916 16.0417C19.551 16.8011 19.551 18.0323 18.7916 18.7917C18.0322 19.5511 16.801 19.5511 16.0416 18.7917L10.5416 13.2917C8.43836 14.2962 5.93034 13.8659 4.28221 12.2177C2.63408 10.5696 2.20377 8.06158 3.20827 5.95833L6.4166 9.16666" stroke="white" stroke-opacity="0.2" stroke-width="1.75" stroke-linecap="round" stroke-linejoin="round"/>
</svg>
