<svg width="22" height="22" viewBox="0 0 22 22" fill="none" xmlns="http://www.w3.org/2000/svg">
  <circle cx="8.24992" cy="6.41667" r="3.66667" stroke="#4B465C" stroke-width="1.75" stroke-linecap="round" stroke-linejoin="round"/>
  <circle cx="8.24992" cy="6.41667" r="3.66667" stroke="white" stroke-opacity="0.2" stroke-width="1.75" stroke-linecap="round" stroke-linejoin="round"/>
  <path d="M2.75 19.25V17.4167C2.75 15.3916 4.39162 13.75 6.41667 13.75H10.0833C12.1084 13.75 13.75 15.3916 13.75 17.4167V19.25" stroke="#4B465C" stroke-width="1.75" stroke-linecap="round" stroke-linejoin="round"/>
  <path d="M2.75 19.25V17.4167C2.75 15.3916 4.39162 13.75 6.41667 13.75H10.0833C12.1084 13.75 13.75 15.3916 13.75 17.4167V19.25" stroke="white" stroke-opacity="0.2" stroke-width="1.75" stroke-linecap="round" stroke-linejoin="round"/>
  <path d="M14.6667 9.20834C14.1835 9.20834 13.7917 9.60009 13.7917 10.0833C13.7917 10.5666 14.1835 10.9583 14.6667 10.9583V9.20834ZM20.1667 10.9583C20.65 10.9583 21.0417 10.5666 21.0417 10.0833C21.0417 9.60009 20.65 9.20834 20.1667 9.20834V10.9583ZM18.2917 7.33334C18.2917 6.85009 17.9 6.45834 17.4167 6.45834C16.9335 6.45834 16.5417 6.85009 16.5417 7.33334H18.2917ZM16.5417 12.8333C16.5417 13.3166 16.9335 13.7083 17.4167 13.7083C17.9 13.7083 18.2917 13.3166 18.2917 12.8333H16.5417ZM14.6667 10.9583H20.1667V9.20834H14.6667V10.9583ZM16.5417 7.33334V12.8333H18.2917V7.33334H16.5417Z" fill="#4B465C"/>
  <path d="M14.6667 9.20834C14.1835 9.20834 13.7917 9.60009 13.7917 10.0833C13.7917 10.5666 14.1835 10.9583 14.6667 10.9583V9.20834ZM20.1667 10.9583C20.65 10.9583 21.0417 10.5666 21.0417 10.0833C21.0417 9.60009 20.65 9.20834 20.1667 9.20834V10.9583ZM18.2917 7.33334C18.2917 6.85009 17.9 6.45834 17.4167 6.45834C16.9335 6.45834 16.5417 6.85009 16.5417 7.33334H18.2917ZM16.5417 12.8333C16.5417 13.3166 16.9335 13.7083 17.4167 13.7083C17.9 13.7083 18.2917 13.3166 18.2917 12.8333H16.5417ZM14.6667 10.9583H20.1667V9.20834H14.6667V10.9583ZM16.5417 7.33334V12.8333H18.2917V7.33334H16.5417Z" fill="white" fill-opacity="0.2"/>
</svg>
